HIERARCHY
ROOT Hips
{
	OFFSET 0.00 0.00 0.00
	CHANNELS 6 Xposition Yposition Zposition Yrotation Xrotation Zrotation
	JOINT Spine
	{
		OFFSET	0.0000	9.2263	1.5771
		CHANNELS 3 Xrotation Yrotation Zrotation
		JOINT Spine1
		{
			OFFSET	0.0000	16.2540	-0.1656
			CHANNELS 3 Xrotation Yrotation Zrotation
			JOINT Spine2
			{
				OFFSET	0.0000	13.6396	-1.2923
				CHANNELS 3 Xrotation Yrotation Zrotation
				JOINT Neck
				{
					OFFSET	0.0000	13.8774	-4.3542
					CHANNELS 3 Xrotation Yrotation Zrotation
					JOINT Neck1
					{
						OFFSET	0.0000	4.3400	0.9269
						CHANNELS 3 Xrotation Yrotation Zrotation
						JOINT Head
						{
							OFFSET	0.0000	4.0266	0.8585
							CHANNELS 3 Xrotation Yrotation Zrotation
							End Site
							{
								OFFSET 0.0000 23.0297 0.1231
							}
						}
					}
				}
				JOINT LeftShoulder
				{
					OFFSET	6.1442	10.1870	-3.7932
					CHANNELS 3 Zrotation Xrotation Yrotation
					JOINT LeftArm
					{
						OFFSET	12.3191	-1.1130	-1.7935
						CHANNELS 3 Zrotation Xrotation Yrotation
						JOINT LeftForeArm
						{
							OFFSET	27.6870	0.0000	0.0000
							CHANNELS 3 Xrotation Zrotation Yrotation
							JOINT LeftHand
							{
								OFFSET	27.8738	0.0000	0.0000
								CHANNELS 3 Zrotation Yrotation Xrotation
								JOINT LeftHandThumb1
								{
									OFFSET	2.3785	-1.0029	2.6209
									CHANNELS 3 Zrotation Xrotation Yrotation
									JOINT LeftHandThumb2
									{
										OFFSET	3.3624	-1.0029	2.8398
										CHANNELS 3 Zrotation Xrotation Yrotation
										JOINT LeftHandThumb3
										{
											OFFSET	4.5018	-1.3445	2.1783
											CHANNELS 3 Zrotation Xrotation Yrotation
											End Site
											{
												OFFSET 2.6000 -1.0000 1.0000
											}
										}
									}
								}
								JOINT LeftHandMiddle1
								{
									OFFSET	10.4639	0.6148	0.4298
									CHANNELS 3 Zrotation Xrotation Yrotation
									JOINT LeftHandMiddle2
									{
										OFFSET	5.7921	0.0000	0.0000
										CHANNELS 3 Zrotation Xrotation Yrotation
										JOINT LeftHandMiddle3
										{
											OFFSET	3.7132	0.0000	0.0000
											CHANNELS 3 Zrotation Xrotation Yrotation
											End Site
											{
												OFFSET 2.3000 0.0000 0.0000
											}
										}
									}
								}
								JOINT LeftHandIndex1
								{
									OFFSET	10.3945	0.6148	2.7055
									CHANNELS 3 Zrotation Xrotation Yrotation
									JOINT LeftHandIndex2
									{
										OFFSET	5.5493	0.0000	0.0000
										CHANNELS 3 Zrotation Xrotation Yrotation
										JOINT LeftHandIndex3
										{
											OFFSET	3.3911	0.0000	0.0000
											CHANNELS 3 Zrotation Xrotation Yrotation
											End Site
											{
												OFFSET 2.5000 0.0000 0.0000
											}
										}
									}
								}
								JOINT LeftHandRing1
								{
									OFFSET	10.3252	0.3211	-1.8755
									CHANNELS 3 Zrotation Xrotation Yrotation
									JOINT LeftHandRing2
									{
										OFFSET	5.4452	0.0000	0.0000
										CHANNELS 3 Zrotation Xrotation Yrotation
										JOINT LeftHandRing3
										{
											OFFSET	3.7132	0.0000	0.0000
											CHANNELS 3 Zrotation Xrotation Yrotation
											End Site
											{
												OFFSET 2.0000 0.0000 0.0000
											}
										}
									}
								}
								JOINT LeftHandPinky1
								{
									OFFSET	10.0130	-0.0783	-3.9671
									CHANNELS 3 Zrotation Xrotation Yrotation
									JOINT LeftHandPinky2
									{
										OFFSET	3.6763	0.0000	0.0000
										CHANNELS 3 Zrotation Xrotation Yrotation
										JOINT LeftHandPinky3
										{
											OFFSET	2.8113	0.0000	0.0000
											CHANNELS 3 Zrotation Xrotation Yrotation
											End Site
											{
												OFFSET 2.9000 0.0000 0.0000
											}
										}
									}
								}
							}
						}
					}
				}
				JOINT RightShoulder
				{
					OFFSET	-6.1402	10.1870	-3.7932
					CHANNELS 3 Zrotation Xrotation Yrotation
					JOINT RightArm
					{
						OFFSET	-12.3231	-1.1130	-1.7935
						CHANNELS 3 Zrotation Xrotation Yrotation
						JOINT RightForeArm
						{
							OFFSET	-27.6870	0.0000	0.0000
							CHANNELS 3 Xrotation Zrotation Yrotation
							JOINT RightHand
							{
								OFFSET	-27.8738	0.0000	0.0000
								CHANNELS 3 Zrotation Yrotation Xrotation
								JOINT RightHandThumb1
								{
									OFFSET	-2.5178	-0.9367	2.5137
									CHANNELS 3 Zrotation Xrotation Yrotation
									JOINT RightHandThumb2
									{
										OFFSET	-3.2638	-1.0870	2.9669
										CHANNELS 3 Zrotation Xrotation Yrotation
										JOINT RightHandThumb3
										{
											OFFSET	-4.4165	-1.3703	2.1350
											CHANNELS 3 Zrotation Xrotation Yrotation
											End Site
											{
												OFFSET -2.6000 -1.0000 1.0000
											}
										}
									}
								}
								JOINT RightHandIndex1
								{
									OFFSET	-10.4665	0.4896	2.7120
									CHANNELS 3 Zrotation Xrotation Yrotation
									JOINT RightHandIndex2
									{
										OFFSET	-5.3768	0.0000	0.0000
										CHANNELS 3 Zrotation Xrotation Yrotation
										JOINT RightHandIndex3
										{
											OFFSET	-3.3855	0.0000	0.0000
											CHANNELS 3 Zrotation Xrotation Yrotation
											End Site
											{
												OFFSET -2.6000 0.0000 0.0000
											}
										}
									}
								}
								JOINT RightHandMiddle1
								{
									OFFSET	-10.7596	0.4896	0.4278
									CHANNELS 3 Zrotation Xrotation Yrotation
									JOINT RightHandMiddle2
									{
										OFFSET	-5.6168	0.0000	0.0000
										CHANNELS 3 Zrotation Xrotation Yrotation
										JOINT RightHandMiddle3
										{
											OFFSET	-3.7364	0.0000	0.0000
											CHANNELS 3 Zrotation Xrotation Yrotation
											End Site
											{
												OFFSET -2.3000 0.0000 0.0000
											}
										}
									}
								}
								JOINT RightHandRing1
								{
									OFFSET	-10.4702	0.3879	-1.9363
									CHANNELS 3 Zrotation Xrotation Yrotation
									JOINT RightHandRing2
									{
										OFFSET	-5.4013	0.0000	0.0000
										CHANNELS 3 Zrotation Xrotation Yrotation
										JOINT RightHandRing3
										{
											OFFSET	-3.3916	0.0000	0.0000
											CHANNELS 3 Zrotation Xrotation Yrotation
											End Site
											{
												OFFSET -2.2000 0.0000 0.0000
											}
										}
									}
								}
								JOINT RightHandPinky1
								{
									OFFSET	-9.9715	-0.1191	-3.9540
									CHANNELS 3 Zrotation Xrotation Yrotation
									JOINT RightHandPinky2
									{
										OFFSET	-3.6528	0.0000	0.0000
										CHANNELS 3 Zrotation Xrotation Yrotation
										JOINT RightHandPinky3
										{
											OFFSET	-2.7820	0.0000	0.0000
											CHANNELS 3 Zrotation Xrotation Yrotation
											End Site
											{
												OFFSET -2.9000 0.0000 0.0000
											}
										}
									}
								}
							}
						}
					}
				}
			}
		}
	}
	JOINT LeftUpLeg
	{
		OFFSET	9.6338	-3.2733	0.0000
		CHANNELS 3 Xrotation Yrotation Zrotation
		JOINT LeftLeg
		{
			OFFSET	0.0000	-41.7300	-1.7300
			CHANNELS 3 Xrotation Yrotation Zrotation
			JOINT LeftFoot
			{
				OFFSET	0.0126	-39.1900	-0.8477
				CHANNELS 3 Xrotation Yrotation Zrotation
				JOINT LeftToeBase
				{
					OFFSET	-0.1833	-12.1931	8.2823
					CHANNELS 3 Xrotation Yrotation Zrotation
					End Site
					{
						OFFSET 0.0000 0.0000 10.1681
					}
				}
			}
		}
	}
	JOINT RightUpLeg
	{
		OFFSET	-9.6338	-3.2733	0.0000
		CHANNELS 3 Xrotation Yrotation Zrotation
		JOINT RightLeg
		{
			OFFSET	0.0000	-41.7300	-1.7300
			CHANNELS 3 Xrotation Yrotation Zrotation
			JOINT RightFoot
			{
				OFFSET	0.0126	-39.1900	-0.8477
				CHANNELS 3 Xrotation Yrotation Zrotation
				JOINT RightToeBase
				{
					OFFSET	-0.1833	-12.1931	8.2823
					CHANNELS 3 Xrotation Yrotation Zrotation
					End Site
					{
						OFFSET 0.0032 0.0000 10.1681
					}
				}
			}
		}
	}
}
MOTION
Frames: 7
Frame Time: 0.0333333
0.0044 92.6749 -0.0440 -2.2226 -3.8430 -0.9936 0.7180 0.0678 0.5977 1.3823 0.1299 0.9665 1.3825 0.1269 0.9666 9.3100 0.2618 -0.9949 -0.0000 0.0000 -0.0000 -15.2710 0.5946 0.7527 -9.3297 -0.2831 5.1962 -52.6736 41.9326 -18.8826 -0.0000 0.0000 -19.6530 -0.3187 4.7600 -19.8728 -9.5806 3.0992 -7.3945 -0.0083 0.0025 30.3938 29.9208 2.1548 6.1450 -36.5548 0.0035 -2.9470 -95.8624 0.0166 -0.0149 -51.2739 0.0056 -0.0117 -42.5293 1.1751 -3.3590 -88.0775 0.0145 -0.0150 -51.0128 0.0056 -0.0117 -36.7092 0.0035 -1.4963 -113.3938 0.0210 -0.0138 -63.1437 0.0083 -0.0134 -42.8556 -5.6719 -2.2343 -85.0312 0.0137 -0.0150 -119.2414 0.0224 -0.0131 9.2519 -0.1102 -4.1650 56.9151 22.7466 15.2314 -0.0000 -0.0000 17.0648 5.6459 0.9540 5.3399 9.5843 3.1023 7.3914 0.0045 0.0015 -30.3941 -29.8300 5.1535 -11.7593 42.5295 1.1729 3.3538 88.0775 0.0076 0.0079 51.0128 0.0029 0.0062 36.5548 0.0018 2.9423 95.8624 0.0087 0.0079 51.2739 0.0030 0.0062 36.7091 0.0018 1.4916 113.3937 0.0111 0.0073 63.1438 0.0043 0.0071 42.8551 -5.6741 2.2291 85.0312 0.0072 0.0079 119.2414 0.0118 0.0069 -10.2819 14.0848 13.5924 30.1413 8.4073 2.2823 -14.7443 2.0679 -13.3572 -0.0022 -0.0000 0.0000 -10.5793 -13.2511 -11.3086 30.0417 -4.8274 -0.8174 -14.5826 -1.6097 10.7146 -0.0000 0.0000 0.0000 
0.0068 92.6621 -0.1236 -2.2463 -3.8531 -0.9371 0.8073 0.0696 0.5821 1.4823 0.1323 0.9453 1.4824 0.1292 0.9455 9.2902 0.2488 -0.9909 -0.0000 0.0000 -0.0000 -15.3412 0.5201 0.8052 -9.3764 -0.2642 5.1771 -52.3588 42.3268 -20.7013 0.0000 0.0000 -17.1036 -0.3187 4.7600 -19.8728 -9.5806 3.0992 -7.3944 -0.0083 0.0025 30.3938 29.9208 2.1548 6.1450 -36.5548 0.0035 -2.9470 -95.8624 0.0166 -0.0150 -51.2739 0.0056 -0.0117 -42.5293 1.1751 -3.3590 -88.0775 0.0145 -0.0150 -51.0128 0.0056 -0.0117 -36.7092 0.0035 -1.4963 -113.3938 0.0210 -0.0138 -63.1438 0.0083 -0.0134 -42.8556 -5.6719 -2.2343 -85.0312 0.0137 -0.0150 -119.2414 0.0224 -0.0131 9.1596 -0.0746 -4.2208 56.9054 23.2161 14.7362 0.0000 0.0000 17.3229 5.5927 0.9795 5.3798 9.5843 3.1023 7.3914 0.0045 0.0015 -30.3941 -29.8300 5.1535 -11.7593 42.5295 1.1729 3.3538 88.0775 0.0077 0.0079 51.0128 0.0029 0.0062 36.5548 0.0018 2.9423 95.8624 0.0087 0.0079 51.2739 0.0030 0.0062 36.7091 0.0018 1.4916 113.3937 0.0111 0.0073 63.1438 0.0043 0.0070 42.8550 -5.6741 2.2291 85.0312 0.0072 0.0079 119.2414 0.0118 0.0069 -10.3326 14.0560 13.5278 30.2044 8.4810 2.2793 -14.7207 2.0678 -13.3526 -0.0000 0.0000 0.0000 -10.7123 -13.1856 -11.3272 30.1872 -4.8601 -0.9122 -14.6014 -1.6170 10.7575 -0.0001 -0.0000 -0.0000 
0.0114 92.6327 -0.2227 -2.2870 -3.8520 -0.8906 0.8106 0.0814 0.5761 1.5571 0.1556 0.9267 1.5573 0.1531 0.9269 9.4192 0.2243 -0.9183 -0.0000 0.0000 -0.0000 -15.5705 0.5106 0.6351 -9.4224 -0.2742 5.1707 -51.4856 43.2230 -22.9064 0.0000 -0.0000 -14.3618 -0.3187 4.7600 -19.8728 -9.5806 3.0992 -7.3944 -0.0083 0.0025 30.3938 29.9208 2.1548 6.1449 -36.5548 0.0035 -2.9470 -95.8624 0.0166 -0.0149 -51.2739 0.0056 -0.0117 -42.5293 1.1751 -3.3590 -88.0775 0.0145 -0.0150 -51.0128 0.0056 -0.0117 -36.7092 0.0035 -1.4963 -113.3938 0.0210 -0.0138 -63.1438 0.0082 -0.0134 -42.8556 -5.6719 -2.2343 -85.0312 0.0137 -0.0150 -119.2414 0.0224 -0.0131 8.9716 -0.0769 -4.1723 57.0941 23.8354 13.9752 -0.0000 -0.0000 18.0421 5.6885 0.3633 4.8913 9.5843 3.1023 7.3914 0.0045 0.0015 -30.3941 -29.8300 5.1535 -11.7593 42.5295 1.1729 3.3538 88.0775 0.0076 0.0079 51.0128 0.0029 0.0061 36.5549 0.0018 2.9423 95.8624 0.0087 0.0079 51.2739 0.0030 0.0062 36.7091 0.0018 1.4917 113.3937 0.0111 0.0073 63.1438 0.0043 0.0071 42.8551 -5.6741 2.2291 85.0312 0.0072 0.0079 119.2415 0.0118 0.0069 -10.4866 14.0908 13.5644 30.4058 8.4793 2.1768 -14.7552 2.0673 -13.2857 -0.0059 -0.0000 -0.0000 -10.8815 -12.9898 -11.2122 30.3894 -4.9996 -1.1976 -14.6397 -1.6432 10.9211 -0.0001 -0.0000 0.0000 
0.0118 92.5787 -0.3412 -2.3237 -3.6335 -0.8372 0.7573 0.0938 0.5916 1.8970 0.1825 0.9159 1.8973 0.1749 0.9155 9.6081 0.2076 -0.8302 -0.0000 0.0000 -0.0000 -16.1377 0.5379 0.3219 -9.1162 -0.2883 5.1352 -49.9258 44.9294 -25.2786 -0.0000 0.0000 -13.0882 -0.3186 4.7600 -19.8728 -9.5806 3.0992 -7.3944 -0.0083 0.0025 30.3938 29.9208 2.1548 6.1450 -36.5548 0.0035 -2.9470 -95.8624 0.0166 -0.0150 -51.2739 0.0056 -0.0117 -42.5293 1.1751 -3.3590 -88.0775 0.0145 -0.0150 -51.0128 0.0056 -0.0117 -36.7092 0.0035 -1.4963 -113.3938 0.0210 -0.0138 -63.1438 0.0082 -0.0134 -42.8556 -5.6719 -2.2343 -85.0312 0.0137 -0.0150 -119.2414 0.0224 -0.0131 8.7480 -0.1463 -3.9844 56.8501 25.4352 13.8809 0.0000 0.0000 19.0973 5.5607 0.0080 3.6701 9.5843 3.1023 7.3914 0.0045 0.0015 -30.3940 -29.8300 5.1535 -11.7593 42.5295 1.1729 3.3538 88.0775 0.0077 0.0079 51.0128 0.0029 0.0061 36.5548 0.0018 2.9423 95.8624 0.0087 0.0079 51.2739 0.0030 0.0062 36.7091 0.0018 1.4917 113.3937 0.0110 0.0073 63.1438 0.0043 0.0071 42.8551 -5.6741 2.2291 85.0312 0.0072 0.0079 119.2415 0.0118 0.0069 -10.9440 14.0734 13.6170 30.7567 8.5089 2.0494 -14.8390 2.0721 -13.2200 -0.0180 -0.0000 0.0000 -11.3552 -12.7345 -11.1025 30.7453 -5.1827 -1.4851 -14.7382 -1.6734 11.0955 -0.0000 -0.0000 0.0000 
-0.0185 92.4327 -0.5076 -2.4113 -3.1480 -0.8323 1.0605 0.0923 0.6192 2.7939 0.1673 0.9092 2.7938 0.1419 0.9077 9.8741 0.2100 -0.7624 -0.0000 0.0000 -0.0000 -18.1046 0.7015 0.1457 -8.0995 -0.2559 5.0249 -47.5196 46.5636 -28.0957 -0.0000 0.0000 -14.4232 -0.3186 4.7600 -19.8728 -9.5806 3.0992 -7.3944 -0.0083 0.0025 30.3938 29.9208 2.1548 6.1450 -36.5548 0.0035 -2.9469 -95.8624 0.0166 -0.0149 -51.2739 0.0056 -0.0117 -42.5293 1.1751 -3.3590 -88.0775 0.0145 -0.0150 -51.0128 0.0056 -0.0117 -36.7092 0.0035 -1.4963 -113.3937 0.0210 -0.0138 -63.1438 0.0082 -0.0134 -42.8556 -5.6719 -2.2343 -85.0312 0.0137 -0.0150 -119.2414 0.0224 -0.0131 8.5240 -0.2885 -3.7005 54.9385 28.3148 15.2417 -0.0000 0.0000 20.9714 5.4054 -0.0849 2.1556 9.5843 3.1023 7.3914 0.0045 0.0015 -30.3941 -29.8300 5.1535 -11.7593 42.5295 1.1729 3.3537 88.0775 0.0076 0.0079 51.0128 0.0029 0.0061 36.5548 0.0018 2.9423 95.8624 0.0087 0.0079 51.2739 0.0030 0.0062 36.7091 0.0018 1.4917 113.3937 0.0111 0.0073 63.1438 0.0043 0.0071 42.8550 -5.6741 2.2291 85.0312 0.0072 0.0079 119.2414 0.0118 0.0069 -11.9943 14.0577 13.8968 31.6587 8.4346 1.8193 -15.1624 2.1042 -13.1370 -0.0000 0.0000 0.0000 -12.3585 -12.3530 -10.9325 31.5943 -5.4524 -1.7950 -15.0427 -1.7309 11.2896 -0.0000 -0.0000 0.0000 
-0.1003 92.1164 -0.8121 -2.4057 -2.5267 -0.9844 1.9978 0.0958 0.6835 4.1666 0.1344 0.9553 4.1653 0.0800 0.9517 10.4916 0.2056 -0.6450 -0.0000 0.0000 -0.0000 -20.5110 0.8082 0.2892 -6.5434 -0.1823 4.8725 -44.9343 46.9694 -29.5905 0.0000 -0.0000 -20.4927 -0.3186 4.7600 -19.8728 -9.5806 3.0992 -7.3944 -0.0083 0.0026 30.3938 29.9208 2.1548 6.1450 -36.5548 0.0035 -2.9470 -95.8624 0.0166 -0.0150 -51.2739 0.0056 -0.0117 -42.5293 1.1751 -3.3590 -88.0775 0.0145 -0.0150 -51.0128 0.0056 -0.0117 -36.7092 0.0035 -1.4963 -113.3937 0.0210 -0.0138 -63.1438 0.0082 -0.0134 -42.8556 -5.6719 -2.2343 -85.0312 0.0137 -0.0150 -119.2415 0.0224 -0.0131 8.2484 -0.4419 -3.5384 50.7886 31.2719 17.5700 -0.0000 -0.0000 25.2928 4.5757 -0.5989 -1.9662 9.5843 3.1023 7.3914 0.0045 0.0015 -30.3940 -29.8300 5.1535 -11.7593 42.5295 1.1729 3.3538 88.0775 0.0076 0.0079 51.0128 0.0029 0.0061 36.5549 0.0018 2.9423 95.8624 0.0087 0.0079 51.2739 0.0030 0.0062 36.7091 0.0018 1.4917 113.3937 0.0111 0.0073 63.1438 0.0043 0.0071 42.8551 -5.6741 2.2291 85.0312 0.0072 0.0079 119.2414 0.0118 0.0069 -13.9592 14.2812 14.9027 33.6296 7.6010 1.1905 -15.9447 2.1366 -12.7530 -0.0001 0.0000 0.0000 -13.8428 -11.6507 -10.3598 33.1659 -6.2527 -2.4297 -15.6259 -1.8670 11.7501 0.0031 0.0000 0.0000 
-0.1990 91.5373 -1.3413 -2.3179 -1.7041 -1.3625 3.4238 0.1409 0.8678 5.8159 0.1688 1.1519 5.8140 0.0822 1.1429 11.0876 0.2041 -0.3770 -0.0000 0.0000 -0.0000 -22.0668 0.7182 0.4114 -5.1591 -0.1451 4.7964 -43.1244 45.2455 -28.8177 -0.0000 0.0000 -30.6986 -0.3187 4.7600 -19.8728 -9.5806 3.0992 -7.3945 -0.0083 0.0026 30.3938 29.9208 2.1548 6.1449 -36.5548 0.0035 -2.9470 -95.8624 0.0166 -0.0150 -51.2739 0.0056 -0.0117 -42.5293 1.1751 -3.3590 -88.0775 0.0145 -0.0150 -51.0128 0.0056 -0.0117 -36.7092 0.0035 -1.4963 -113.3937 0.0210 -0.0138 -63.1438 0.0082 -0.0134 -42.8556 -5.6719 -2.2343 -85.0312 0.0137 -0.0150 -119.2414 0.0224 -0.0131 7.7329 -0.4743 -3.8129 45.9316 31.9848 19.5295 0.0000 -0.0000 32.8734 2.2789 -0.5794 -7.7761 9.5843 3.1023 7.3914 0.0045 0.0015 -30.3940 -29.8300 5.1535 -11.7593 42.5295 1.1729 3.3538 88.0775 0.0077 0.0079 51.0128 0.0029 0.0062 36.5549 0.0018 2.9423 95.8624 0.0087 0.0079 51.2739 0.0030 0.0062 36.7091 0.0018 1.4917 113.3937 0.0110 0.0073 63.1438 0.0043 0.0070 42.8551 -5.6741 2.2291 85.0312 0.0072 0.0079 119.2414 0.0118 0.0069 -17.0547 14.2860 16.3807 36.9267 6.5337 0.6133 -17.2297 2.2407 -12.3594 0.0001 0.0000 0.0000 -16.1355 -10.8526 -9.7027 35.8163 -7.1548 -2.8700 -16.6283 -2.0487 12.1639 0.0426 0.0000 0.0000 
